<svg width="256" height="256" viewBox="0 0 256 256" fill="none" xmlns="http://www.w3.org/2000/svg">
  <defs>
    <filter id="glowBlue" x="-50%" y="-50%" width="200%" height="200%">
      <feGaussianBlur stdDeviation="3" result="blur"/>
      <feMerge><feMergeNode in="blur"/><feMergeNode in="SourceGraphic"/></feMerge>
    </filter>
    <filter id="glowYellow" x="-50%" y="-50%" width="200%" height="200%">
      <feGaussianBlur stdDeviation="2.5" result="blur"/>
      <feMerge><feMergeNode in="blur"/><feMergeNode in="SourceGraphic"/></feMerge>
    </filter>
    <filter id="glowPink" x="-50%" y="-50%" width="200%" height="200%">
      <feGaussianBlur stdDeviation="2.5" result="blur"/>
      <feMerge><feMergeNode in="blur"/><feMergeNode in="SourceGraphic"/></feMerge>
    </filter>
    <style>
      .blue  { fill:none; stroke:#35E6FF; stroke-width:6; stroke-linecap:round; stroke-linejoin:round; filter:url(#glowBlue); }
      .yellow{ fill:none; stroke:#FFC93A; stroke-width:6; stroke-linecap:round; stroke-linejoin:round; filter:url(#glowYellow); }
      .pink  { fill:none; stroke:#FF3BCB; stroke-width:6; stroke-linecap:round; stroke-linejoin:round; filter:url(#glowPink); }
      .plain { fill:none; stroke:#35E6FF; stroke-width:6; stroke-linecap:round; stroke-linejoin:round; }
    </style>
  </defs>
  <rect width="256" height="256" rx="28" fill="#0B0F2A"/>

  <!-- hair: wavy bob (웨이브 단발) -->

  <!-- crown arch -->
  <path class="blue" d="M80 84 C80 54,100 40,128 40 C156 40,176 54,176 84"/>

  <!-- left side: outer strand going down, tip flicks outward -->
  <path class="blue" d="M80 84 C60 108,50 138,52 162 C54 176,62 184,72 182 C80 180,86 170,78 160"/>

  <!-- left side: inner strand for depth -->
  <path class="blue" d="M87 84 C72 110,64 140,66 162 C68 172,76 178,84 176"/>

  <!-- right side: outer strand going down, tip flicks outward -->
  <path class="blue" d="M176 84 C196 108,206 138,204 162 C202 176,194 184,184 182 C176 180,170 170,178 160"/>

  <!-- right side: inner strand for depth -->
  <path class="blue" d="M169 84 C184 110,192 140,190 162 C188 172,180 178,172 176"/>

  <!-- bangs: side-swept right with two layers -->
  <path class="blue" d="M88 78 C104 64,126 58,148 64 C162 68,172 78,174 86"/>
  <path class="blue" d="M88 78 C102 82,118 84,132 82 C142 80,152 76,158 72"/>

  <!-- ears -->
  <path class="plain" d="M71 112 C60 114,60 132,71 136"/>
  <path class="plain" d="M185 112 C196 114,196 132,185 136"/>

  <!-- face -->
  <path class="plain" d="M78 84 L78 172 C78 206,101 224,128 224 C155 224,178 206,178 172 L178 84"/>

  <!-- eyebrows -->
  <path class="yellow" d="M96 96 L113 92"/>
  <path class="yellow" d="M143 92 L160 96"/>

  <!-- eyes -->
  <circle class="plain" cx="104" cy="116" r="10"/>
  <circle class="plain" cx="152" cy="116" r="10"/>
  <circle class="plain" cx="104" cy="116" r="2"/>
  <circle class="plain" cx="152" cy="116" r="2"/>

  <!-- lashes left -->
  <path class="plain" d="M96 108 L93 104"/>
  <path class="plain" d="M104 106 L104 102"/>
  <path class="plain" d="M112 108 L115 104"/>

  <!-- lashes right -->
  <path class="plain" d="M144 108 L141 104"/>
  <path class="plain" d="M152 106 L152 102"/>
  <path class="plain" d="M160 108 L163 104"/>

  <!-- nose -->
  <path class="yellow" d="M128 128 L128 129"/>

  <!-- mouth -->
  <path class="pink" d="M108 153 C116 166,140 166,148 153"/>

  <!-- chin accent -->
  <path class="pink" d="M116 163 C122 169,134 169,140 163" opacity="0.9"/>
</svg>
