<svg width="256" height="256" viewBox="0 0 256 256" fill="none" xmlns="http://www.w3.org/2000/svg">
  <defs>
    <style>
      .blue  { fill:none; stroke:#35E6FF; stroke-width:6; stroke-linecap:round; stroke-linejoin:round; }
      .plain { fill:none; stroke:#35E6FF; stroke-width:6; stroke-linecap:round; stroke-linejoin:round; }
    </style>
  </defs>

  <rect width="256" height="256" rx="28" fill="#0B0F2A"/>

  <!-- hair: wavy bob -->
  <path class="blue" d="M80 84 C80 54,100 40,128 40 C156 40,176 54,176 84"/>
  <path class="blue" d="M80 84 C60 108,50 138,52 162 C54 176,62 184,72 182 C80 180,86 170,78 160"/>
  <path class="blue" d="M87 84 C72 110,64 140,66 162 C68 172,76 178,84 176"/>
  <path class="blue" d="M176 84 C196 108,206 138,204 162 C202 176,194 184,184 182 C176 180,170 170,178 160"/>
  <path class="blue" d="M169 84 C184 110,192 140,190 162 C188 172,180 178,172 176"/>
  <path class="blue" d="M88 78 C104 64,126 58,148 64 C162 68,172 78,174 86"/>
  <path class="blue" d="M88 78 C102 82,118 84,132 82 C142 80,152 76,158 72"/>

  <!-- ears -->
  <path class="plain" d="M71 112 C60 114,60 132,71 136"/>
  <path class="plain" d="M185 112 C196 114,196 132,185 136"/>

  <!-- face -->
  <path class="plain" d="M78 84 L78 172 C78 206,101 224,128 224 C155 224,178 206,178 172 L178 84"/>

  <line class="plain" x1="95" y1="120" x2="115" y2="120"/>
  <line class="plain" x1="141" y1="120" x2="161" y2="120"/>

  <line class="plain" x1="110" y1="160" x2="146" y2="160"/>

</svg>