<svg width="256" height="256" viewBox="0 0 256 256" xmlns="http://www.w3.org/2000/svg">
<style>
.blue  { fill:none; stroke:#35E6FF; stroke-width:6; stroke-linecap:round; stroke-linejoin:round; }
.yellow{ fill:none; stroke:#FFC93A; stroke-width:6; stroke-linecap:round; stroke-linejoin:round; }
.pink  { fill:none; stroke:#FF3BCB; stroke-width:6; stroke-linecap:round; stroke-linejoin:round; }
.plain { fill:none; stroke:#35E6FF; stroke-width:6; stroke-linecap:round; stroke-linejoin:round; }
</style>

<rect width="256" height="256" rx="28" fill="#0B0F2A"/>

<!-- hair: twin tails -->
<path class="blue" d="M84 84 C84 56,100 42,128 42 C156 42,172 56,172 84"/>
<path class="blue" d="M80 88 C68 96,56 108,52 128 C48 148,54 170,62 188 C66 196,72 200,78 198"/>
<path class="blue" d="M80 88 C72 98,64 114,62 134 C60 154,64 172,70 186"/>
<path class="blue" d="M176 88 C188 96,200 108,204 128 C208 148,202 170,194 188 C190 196,184 200,178 198"/>
<path class="blue" d="M176 88 C184 98,192 114,194 134 C196 154,192 172,186 186"/>

<!-- ribbons -->
<path class="pink" d="M74 102 C68 98,68 106,74 104"/>
<path class="pink" d="M182 102 C188 98,188 106,182 104"/>

<!-- bangs -->
<path class="blue" d="M88 78 C100 70,116 66,128 68 C140 66,156 70,168 78"/>

<!-- ears -->
<path class="plain" d="M71 112 C60 114,60 132,71 136"/>
<path class="plain" d="M185 112 C196 114,196 132,185 136"/>

<!-- face -->
<path class="plain" d="M78 84 L78 172 C78 206,101 224,128 224 C155 224,178 206,178 172 L178 84"/>

<!-- eyebrows -->
<path class="yellow" d="M96 96 L113 92"/>
<path class="yellow" d="M143 92 L160 96"/>

<line class="yellow" x1="95" y1="120" x2="115" y2="120"/>
<line class="yellow" x1="141" y1="120" x2="161" y2="120"/>

<line class="plain" x1="110" y1="160" x2="146" y2="160"/>

</svg>