<svg width="256" height="256" viewBox="0 0 256 256" xmlns="http://www.w3.org/2000/svg">
<style>
.line { fill:none; stroke-linecap:round; stroke-width:6; }
.blue { stroke:#35E6FF; }
.yellow { stroke:#FFC93A; }
.pink { stroke:#B266FF; }
</style>

<rect width="256" height="256" fill="#0B0F2A"/>
  <path class="line blue" d="M72 78
    C72 58, 88 44, 108 44
    C118 44, 126 48, 132 54
    C138 48, 146 44, 156 44
    C176 44, 192 58, 192 78
    L192 84
    C186 82, 182 82, 176 82
    C162 82, 148 82, 134 82
    C120 82, 106 82, 92 82
    C86 82, 78 82, 72 84
    Z"/>


<!-- face -->
<path class="line blue" d="M78 84 L78 172 C78 206,101 224,128 224 C155 224,178 206,178 172 L178 84"/>

<!-- eyes -->
<circle class="line yellow" cx="104" cy="116" r="8"/><circle class="line yellow" cx="152" cy="116" r="8"/>

<!-- mouth -->
<path class="line pink" d="M103 151 C111 168,145 168,153 151"/>

</svg>