<svg width="256" height="256" viewBox="0 0 256 256" fill="none" xmlns="http://www.w3.org/2000/svg">
  <defs>
    <filter id="glowBlue" x="-50%" y="-50%" width="200%" height="200%">
      <feGaussianBlur stdDeviation="3" result="blur"/>
      <feMerge><feMergeNode in="blur"/><feMergeNode in="SourceGraphic"/></feMerge>
    </filter>
    <filter id="glowYellow" x="-50%" y="-50%" width="200%" height="200%">
      <feGaussianBlur stdDeviation="2.5" result="blur"/>
      <feMerge><feMergeNode in="blur"/><feMergeNode in="SourceGraphic"/></feMerge>
    </filter>
    <filter id="glowPink" x="-50%" y="-50%" width="200%" height="200%">
      <feGaussianBlur stdDeviation="2.5" result="blur"/>
      <feMerge><feMergeNode in="blur"/><feMergeNode in="SourceGraphic"/></feMerge>
    </filter>
    <style>
      .blue  { fill:none; stroke:#35E6FF; stroke-width:6; stroke-linecap:round; stroke-linejoin:round; filter:url(#glowBlue); }
      .yellow{ fill:none; stroke:#FFC93A; stroke-width:6; stroke-linecap:round; stroke-linejoin:round; filter:url(#glowYellow); }
      .pink  { fill:none; stroke:#FF3BCB; stroke-width:6; stroke-linecap:round; stroke-linejoin:round; filter:url(#glowPink); }
      .plain { fill:none; stroke:#35E6FF; stroke-width:6; stroke-linecap:round; stroke-linejoin:round; }
    </style>
  </defs>

  <rect width="256" height="256" rx="28" fill="#0B0F2A"/>

  <!-- 머리 -->
  <path class="blue" d="M80 84 C80 58, 96 42, 128 42 C160 42, 176 58, 176 84 C176 120, 182 160, 186 196"/>
  <path class="blue" d="M80 84 C72 120, 66 160, 70 196"/>
  <path class="blue" d="M86 84 C80 112, 76 148, 78 184"/>
  <path class="blue" d="M128 42 L128 76"/>
  <path class="blue" d="M86 76 C100 68, 116 66, 128 68 C140 66, 156 68, 170 76"/>

  <path class="yellow" d="M96 96 L113 92"/>
  <path class="yellow" d="M143 92 L160 96"/>

<!-- eyes -->
<line class="plain" x1="100" y1="120" x2="110" y2="120"/>
<line class="plain" x1="146" y1="120" x2="156" y2="120"/>

<!-- mouth -->
<line class="plain" x1="110" y1="160" x2="146" y2="160"/>


  <!-- 귀 -->
  <path class="plain" d="M71 112 C60 114,60 132,71 136"/>
  <path class="plain" d="M185 112 C196 114,196 132,185 136"/>

  <path class="plain" d="M78 84 L78 172 C78 206,101 224,128 224 C155 224,178 206,178 172 L178 84"/>


</svg>