<svg width="256" height="256" viewBox="0 0 256 256" fill="none" xmlns="http://www.w3.org/2000/svg">
  <defs>
    <filter id="glowBlue" x="-50%" y="-50%" width="200%" height="200%">
      <feGaussianBlur stdDeviation="3" result="blur"/>
      <feMerge><feMergeNode in="blur"/><feMergeNode in="SourceGraphic"/></feMerge>
    </filter>
    <filter id="glowYellow" x="-50%" y="-50%" width="200%" height="200%">
      <feGaussianBlur stdDeviation="2.5" result="blur"/>
      <feMerge><feMergeNode in="blur"/><feMergeNode in="SourceGraphic"/></feMerge>
    </filter>
    <filter id="glowPink" x="-50%" y="-50%" width="200%" height="200%">
      <feGaussianBlur stdDeviation="2.5" result="blur"/>
      <feMerge><feMergeNode in="blur"/><feMergeNode in="SourceGraphic"/></feMerge>
    </filter>
    <style>
      .blue  { fill:none; stroke:#35E6FF; stroke-width:6; stroke-linecap:round; stroke-linejoin:round; filter:url(#glowBlue); }
      .yellow{ fill:none; stroke:#FFC93A; stroke-width:6; stroke-linecap:round; stroke-linejoin:round; filter:url(#glowYellow); }
      .pink  { fill:none; stroke:#FF3BCB; stroke-width:6; stroke-linecap:round; stroke-linejoin:round; filter:url(#glowPink); }
      .plain { fill:none; stroke:#35E6FF; stroke-width:6; stroke-linecap:round; stroke-linejoin:round; }
    </style>
  </defs>
  <rect width="256" height="256" rx="28" fill="#0B0F2A"/>

  <!-- hair: bowl cut – outer dome -->
  <path class="blue" d="M78 84 C78 52,100 40,128 40 C156 40,178 52,178 84"/>
  <!-- hair: bowl cut – inner layer -->
  <path class="blue" d="M86 84 C86 62,106 52,128 52 C150 52,170 62,170 84"/>

  <!-- ears -->
  <path class="plain" d="M71 112 C60 114,60 132,71 136"/>
  <path class="plain" d="M185 112 C196 114,196 132,185 136"/>

  <!-- face -->
  <path class="plain" d="M78 84 L78 172 C78 206,101 224,128 224 C155 224,178 206,178 172 L178 84"/>

  <!-- eyebrows -->
  <path class="yellow" d="M96 96 L113 92"/>
  <path class="yellow" d="M143 92 L160 96"/>

  <!-- eyes -->
  <circle class="plain" cx="104" cy="116" r="10"/>
  <circle class="plain" cx="152" cy="116" r="10"/>
  <circle class="plain" cx="104" cy="116" r="2"/>
  <circle class="plain" cx="152" cy="116" r="2"/>

  <!-- nose -->
  <path class="yellow" d="M128 128 L128 129"/>

  <!-- mouth -->
  <path class="pink" d="M103 151 C111 168,145 168,153 151"/>

  <!-- chin accent -->
  <path class="pink" d="M114 165 C121 171,135 171,142 165" opacity="0.9"/>
</svg>
